<svg width="22" height="13" viewBox="0 0 22 13" fill="none" xmlns="http://www.w3.org/2000/svg">
<path d="M1.25 7.66071L17.75 7.66071L14.125 11.0268C13.625 11.4911 13.625 12.1875 14.125 12.6518C14.625 13.1161 15.375 13.1161 15.875 12.6518L21.625 7.3125C22.125 6.84822 22.125 6.15179 21.625 5.6875L15.875 0.348216C15.375 -0.11607 14.625 -0.11607 14.125 0.348215C13.625 0.812501 13.625 1.50893 14.125 1.97321L17.75 5.33929L1.25 5.33928C0.624999 5.33928 -1.27822e-06 5.80357 -1.3391e-06 6.5C-1.39998e-06 7.19643 0.624999 7.66071 1.25 7.66071Z" fill="white"/>
</svg>
