<svg width="93" height="44" viewBox="0 0 93 44" fill="none" xmlns="http://www.w3.org/2000/svg">
<path d="M24.66 18V4H27.9V18H24.66ZM34.6225 18.16C33.7025 18.16 32.8158 18.0533 31.9625 17.84C31.1225 17.6133 30.4558 17.3333 29.9625 17L31.0025 14.76C31.4958 15.0667 32.0758 15.32 32.7425 15.52C33.4225 15.7067 34.0892 15.8 34.7425 15.8C35.4625 15.8 35.9692 15.7133 36.2625 15.54C36.5692 15.3667 36.7225 15.1267 36.7225 14.82C36.7225 14.5667 36.6025 14.38 36.3625 14.26C36.1358 14.1267 35.8292 14.0267 35.4425 13.96C35.0558 13.8933 34.6292 13.8267 34.1625 13.76C33.7092 13.6933 33.2492 13.6067 32.7825 13.5C32.3158 13.38 31.8892 13.2067 31.5025 12.98C31.1158 12.7533 30.8025 12.4467 30.5625 12.06C30.3358 11.6733 30.2225 11.1733 30.2225 10.56C30.2225 9.88 30.4158 9.28 30.8025 8.76C31.2025 8.24 31.7758 7.83333 32.5225 7.54C33.2692 7.23333 34.1625 7.08 35.2025 7.08C35.9358 7.08 36.6825 7.16 37.4425 7.32C38.2025 7.48 38.8358 7.71333 39.3425 8.02L38.3025 10.24C37.7825 9.93333 37.2558 9.72667 36.7225 9.62C36.2025 9.5 35.6958 9.44 35.2025 9.44C34.5092 9.44 34.0025 9.53333 33.6825 9.72C33.3625 9.90667 33.2025 10.1467 33.2025 10.44C33.2025 10.7067 33.3158 10.9067 33.5425 11.04C33.7825 11.1733 34.0958 11.28 34.4825 11.36C34.8692 11.44 35.2892 11.5133 35.7425 11.58C36.2092 11.6333 36.6758 11.72 37.1425 11.84C37.6092 11.96 38.0292 12.1333 38.4025 12.36C38.7892 12.5733 39.1025 12.8733 39.3425 13.26C39.5825 13.6333 39.7025 14.1267 39.7025 14.74C39.7025 15.4067 39.5025 16 39.1025 16.52C38.7025 17.0267 38.1225 17.4267 37.3625 17.72C36.6158 18.0133 35.7025 18.16 34.6225 18.16ZM41.6275 18V7.24H44.6075V10.28L44.1875 9.4C44.5075 8.64 45.0208 8.06667 45.7275 7.68C46.4342 7.28 47.2942 7.08 48.3075 7.08V9.96C48.1742 9.94667 48.0542 9.94 47.9475 9.94C47.8408 9.92667 47.7275 9.92 47.6075 9.92C46.7542 9.92 46.0608 10.1667 45.5275 10.66C45.0075 11.14 44.7475 11.8933 44.7475 12.92V18H41.6275ZM56.0595 18V15.9L55.8595 15.44V11.68C55.8595 11.0133 55.6529 10.4933 55.2395 10.12C54.8395 9.74667 54.2195 9.56 53.3795 9.56C52.8062 9.56 52.2395 9.65333 51.6795 9.84C51.1329 10.0133 50.6662 10.2533 50.2795 10.56L49.1595 8.38C49.7462 7.96667 50.4529 7.64667 51.2795 7.42C52.1062 7.19333 52.9462 7.08 53.7995 7.08C55.4395 7.08 56.7129 7.46667 57.6195 8.24C58.5262 9.01333 58.9795 10.22 58.9795 11.86V18H56.0595ZM52.7795 18.16C51.9395 18.16 51.2195 18.02 50.6195 17.74C50.0195 17.4467 49.5595 17.0533 49.2395 16.56C48.9195 16.0667 48.7595 15.5133 48.7595 14.9C48.7595 14.26 48.9129 13.7 49.2195 13.22C49.5395 12.74 50.0395 12.3667 50.7195 12.1C51.3995 11.82 52.2862 11.68 53.3795 11.68H56.2395V13.5H53.7195C52.9862 13.5 52.4795 13.62 52.1995 13.86C51.9329 14.1 51.7995 14.4 51.7995 14.76C51.7995 15.16 51.9529 15.48 52.2595 15.72C52.5795 15.9467 53.0129 16.06 53.5595 16.06C54.0795 16.06 54.5462 15.94 54.9595 15.7C55.3729 15.4467 55.6729 15.08 55.8595 14.6L56.3395 16.04C56.1129 16.7333 55.6995 17.26 55.0995 17.62C54.4995 17.98 53.7262 18.16 52.7795 18.16ZM67.2214 18.16C65.9947 18.16 64.9147 17.92 63.9814 17.44C63.0614 16.96 62.3481 16.3067 61.8414 15.48C61.3347 14.64 61.0814 13.6867 61.0814 12.62C61.0814 11.54 61.3281 10.5867 61.8214 9.76C62.3281 8.92 63.0147 8.26667 63.8814 7.8C64.7481 7.32 65.7281 7.08 66.8214 7.08C67.8747 7.08 68.8214 7.30667 69.6614 7.76C70.5147 8.2 71.1881 8.84 71.6814 9.68C72.1747 10.5067 72.4214 11.5 72.4214 12.66C72.4214 12.78 72.4147 12.92 72.4014 13.08C72.3881 13.2267 72.3747 13.3667 72.3614 13.5H63.6214V11.68H70.7214L69.5214 12.22C69.5214 11.66 69.4081 11.1733 69.1814 10.76C68.9547 10.3467 68.6414 10.0267 68.2414 9.8C67.8414 9.56 67.3747 9.44 66.8414 9.44C66.3081 9.44 65.8347 9.56 65.4214 9.8C65.0214 10.0267 64.7081 10.3533 64.4814 10.78C64.2547 11.1933 64.1414 11.6867 64.1414 12.26V12.74C64.1414 13.3267 64.2681 13.8467 64.5214 14.3C64.7881 14.74 65.1547 15.08 65.6214 15.32C66.1014 15.5467 66.6614 15.66 67.3014 15.66C67.8747 15.66 68.3747 15.5733 68.8014 15.4C69.2414 15.2267 69.6414 14.9667 70.0014 14.62L71.6614 16.42C71.1681 16.98 70.5481 17.4133 69.8014 17.72C69.0547 18.0133 68.1947 18.16 67.2214 18.16ZM74.4986 18V3.16H77.6186V18H74.4986ZM24.66 40V26H31.5C33.26 26 34.58 26.3333 35.46 27C36.3533 27.6667 36.8 28.5467 36.8 29.64C36.8 30.3733 36.62 31.0133 36.26 31.56C35.9 32.0933 35.4067 32.5067 34.78 32.8C34.1533 33.0933 33.4333 33.24 32.62 33.24L33 32.42C33.88 32.42 34.66 32.5667 35.34 32.86C36.02 33.14 36.5467 33.56 36.92 34.12C37.3067 34.68 37.5 35.3667 37.5 36.18C37.5 37.38 37.0267 38.32 36.08 39C35.1333 39.6667 33.74 40 31.9 40H24.66ZM27.88 37.56H31.66C32.5 37.56 33.1333 37.4267 33.56 37.16C34 36.88 34.22 36.44 34.22 35.84C34.22 35.2533 34 34.82 33.56 34.54C33.1333 34.2467 32.5 34.1 31.66 34.1H27.64V31.74H31.1C31.8867 31.74 32.4867 31.6067 32.9 31.34C33.3267 31.06 33.54 30.64 33.54 30.08C33.54 29.5333 33.3267 29.1267 32.9 28.86C32.4867 28.58 31.8867 28.44 31.1 28.44H27.88V37.56ZM44.853 40.16C43.7063 40.16 42.6863 39.92 41.793 39.44C40.913 38.96 40.213 38.3067 39.693 37.48C39.1863 36.64 38.933 35.6867 38.933 34.62C38.933 33.54 39.1863 32.5867 39.693 31.76C40.213 30.92 40.913 30.2667 41.793 29.8C42.6863 29.32 43.7063 29.08 44.853 29.08C45.9863 29.08 46.9996 29.32 47.893 29.8C48.7863 30.2667 49.4863 30.9133 49.993 31.74C50.4996 32.5667 50.753 33.5267 50.753 34.62C50.753 35.6867 50.4996 36.64 49.993 37.48C49.4863 38.3067 48.7863 38.96 47.893 39.44C46.9996 39.92 45.9863 40.16 44.853 40.16ZM44.853 37.6C45.373 37.6 45.8396 37.48 46.253 37.24C46.6663 37 46.993 36.66 47.233 36.22C47.473 35.7667 47.593 35.2333 47.593 34.62C47.593 33.9933 47.473 33.46 47.233 33.02C46.993 32.58 46.6663 32.24 46.253 32C45.8396 31.76 45.373 31.64 44.853 31.64C44.333 31.64 43.8663 31.76 43.453 32C43.0396 32.24 42.7063 32.58 42.453 33.02C42.213 33.46 42.093 33.9933 42.093 34.62C42.093 35.2333 42.213 35.7667 42.453 36.22C42.7063 36.66 43.0396 37 43.453 37.24C43.8663 37.48 44.333 37.6 44.853 37.6ZM57.3784 40.16C56.4851 40.16 55.6851 39.9867 54.9784 39.64C54.2851 39.2933 53.7451 38.7667 53.3584 38.06C52.9718 37.34 52.7784 36.4267 52.7784 35.32V29.24H55.8984V34.86C55.8984 35.7533 56.0851 36.4133 56.4584 36.84C56.8451 37.2533 57.3851 37.46 58.0784 37.46C58.5584 37.46 58.9851 37.36 59.3584 37.16C59.7318 36.9467 60.0251 36.6267 60.2384 36.2C60.4518 35.76 60.5584 35.2133 60.5584 34.56V29.24H63.6784V40H60.7184V37.04L61.2584 37.9C60.8984 38.6467 60.3651 39.2133 59.6584 39.6C58.9651 39.9733 58.2051 40.16 57.3784 40.16ZM73.1089 29.08C73.9622 29.08 74.7222 29.2533 75.3889 29.6C76.0689 29.9333 76.6022 30.4533 76.9889 31.16C77.3756 31.8533 77.5689 32.7467 77.5689 33.84V40H74.4489V34.32C74.4489 33.4533 74.2556 32.8133 73.8689 32.4C73.4956 31.9867 72.9622 31.78 72.2689 31.78C71.7756 31.78 71.3289 31.8867 70.9289 32.1C70.5422 32.3 70.2356 32.6133 70.0089 33.04C69.7956 33.4667 69.6889 34.0133 69.6889 34.68V40H66.5689V29.24H69.5489V32.22L68.9889 31.32C69.3756 30.6 69.9289 30.0467 70.6489 29.66C71.3689 29.2733 72.1889 29.08 73.1089 29.08ZM85.0952 40.16C84.0818 40.16 83.1685 39.9333 82.3552 39.48C81.5418 39.0133 80.8952 38.3667 80.4152 37.54C79.9485 36.7133 79.7152 35.74 79.7152 34.62C79.7152 33.4867 79.9485 32.5067 80.4152 31.68C80.8952 30.8533 81.5418 30.2133 82.3552 29.76C83.1685 29.3067 84.0818 29.08 85.0952 29.08C86.0018 29.08 86.7952 29.28 87.4752 29.68C88.1552 30.08 88.6818 30.6867 89.0552 31.5C89.4285 32.3133 89.6152 33.3533 89.6152 34.62C89.6152 35.8733 89.4352 36.9133 89.0752 37.74C88.7152 38.5533 88.1952 39.16 87.5152 39.56C86.8485 39.96 86.0418 40.16 85.0952 40.16ZM85.6352 37.6C86.1418 37.6 86.6018 37.48 87.0152 37.24C87.4285 37 87.7552 36.66 87.9952 36.22C88.2485 35.7667 88.3752 35.2333 88.3752 34.62C88.3752 33.9933 88.2485 33.46 87.9952 33.02C87.7552 32.58 87.4285 32.24 87.0152 32C86.6018 31.76 86.1418 31.64 85.6352 31.64C85.1152 31.64 84.6485 31.76 84.2352 32C83.8218 32.24 83.4885 32.58 83.2352 33.02C82.9952 33.46 82.8752 33.9933 82.8752 34.62C82.8752 35.2333 82.9952 35.7667 83.2352 36.22C83.4885 36.66 83.8218 37 84.2352 37.24C84.6485 37.48 85.1152 37.6 85.6352 37.6ZM88.4552 40V37.8L88.5152 34.6L88.3152 31.42V25.16H91.4352V40H88.4552Z" fill="white"/>
<g clip-path="url(#clip0_126_17)">
<path d="M7.0201 15.6799C9.4201 17.0499 10.0901 18.9799 9.9901 21.5999C9.7801 26.9399 9.9301 32.2899 9.9201 37.6399C9.9201 38.1699 10.0801 38.7199 9.7101 39.3299C8.0901 38.5099 6.9701 37.5199 7.0001 35.4699C7.0701 28.9099 7.0301 22.3599 7.0301 15.6899L7.0201 15.6799Z" fill="white"/>
<path d="M3.31005 9.28002C4.54005 10.66 5.05005 11.95 5.76005 13.12C5.90005 13.34 6.00005 13.65 5.97005 13.9C5.14005 20.97 5.85005 28.07 5.60005 35.16C5.60005 35.31 5.55005 35.47 5.48005 35.92C4.38005 34.68 3.20005 33.95 3.23005 32.1C3.35005 24.94 3.30005 17.78 3.31005 10.62C3.31005 10.3 3.31005 9.99002 3.31005 9.27002V9.28002Z" fill="white"/>
<path d="M2.00012 32.2C0.800117 29.78 0.070117 27.74 0.060117 25.49C0.040117 21.15 0.090117 16.8 0.000117032 12.45C-0.039883 10.51 0.680117 8.94996 2.00012 7.20996V32.2Z" fill="white"/>
<path d="M11.3701 38.75C11.3701 32.68 11.3701 26.62 11.3701 20.55C11.6001 20.53 11.8401 20.52 12.0701 20.5C13.2701 21.02 13.6901 21.86 13.6501 23.22C13.5301 27.29 13.5701 31.37 13.5501 35.45C13.0801 35.54 12.7701 35.69 13.3101 36.13C13.3901 36.55 13.4701 36.98 13.5501 37.4C12.7101 37.68 12.3001 38.64 11.3701 38.76V38.75Z" fill="white"/>
<path d="M10.5501 13.07C10.2701 13.65 9.88005 14.16 9.34005 14.4C8.76005 14.67 8.47005 14.07 8.26005 13.68C6.92005 11.23 5.63005 8.75001 4.28005 6.31001C3.84005 5.52001 4.40005 5.22001 4.85005 4.84001C5.36005 4.41001 5.63005 4.79001 5.86005 5.20001C7.28005 7.72001 8.52005 10.36 10.3401 12.64C10.4401 12.76 10.4801 12.93 10.5401 13.07H10.5501Z" fill="white"/>
<path d="M8.25994 3.01995C8.69994 2.94995 8.88994 3.09995 9.06994 3.33995C10.5499 5.32995 11.9699 7.34995 12.5399 9.82995C12.6699 10.39 12.7599 11 12.1699 11.3C11.3899 11.71 11.2499 10.87 11.0099 10.48C9.73994 8.42995 8.49994 6.34995 7.30994 4.23995C6.62994 3.01995 7.99994 3.38995 8.25994 3.01995Z" fill="white"/>
<path d="M11.3701 38.7499C12.3001 38.6299 12.7201 37.6699 13.5501 37.3899C13.5501 38.6799 13.5501 39.9799 13.5501 41.3199C12.0501 41.0099 10.8901 40.5499 11.3701 38.7499Z" fill="white"/>
<path d="M12.0701 20.5C11.8401 20.52 11.6001 20.53 11.3701 20.55C11.3901 20.36 11.3901 20.02 11.4401 20.01C11.8001 19.94 11.9301 20.25 12.0701 20.5Z" fill="white"/>
<path d="M13.32 36.1199C12.77 35.6799 13.09 35.5299 13.56 35.4399C13.62 35.7099 13.67 35.9899 13.32 36.1199Z" fill="white"/>
</g>
<defs>
<clipPath id="clip0_126_17">
<rect width="13.65" height="38.32" fill="white" transform="translate(0 3)"/>
</clipPath>
</defs>
</svg>
